HIERARCHY
ROOT Hips
{
	OFFSET 0.000000 0.000000 0.000000
	CHANNELS 6 Xposition Yposition Zposition Zrotation Yrotation Xrotation 
	JOINT LHipJoint
	{
		OFFSET 0.000000 0.000000 0.000000
		CHANNELS 3 Zrotation Yrotation Xrotation
		JOINT LeftUpLeg
		{
			OFFSET 1.363060 -1.794630 0.839290
			CHANNELS 3 Zrotation Yrotation Xrotation
			JOINT LeftLeg
			{
				OFFSET 2.448110 -6.726130 0.000000
				CHANNELS 3 Zrotation Yrotation Xrotation
				JOINT LeftFoot
				{
					OFFSET 2.562200 -7.039590 0.000000
					CHANNELS 3 Zrotation Yrotation Xrotation
					JOINT LeftToeBase
					{
						OFFSET 0.157640 -0.433110 2.322550
						CHANNELS 3 Zrotation Yrotation Xrotation
						End Site
						{
							OFFSET 0.000000 0.000000 0.000000
						}
					}
				}
			}
		}
	}
	JOINT RHipJoint
	{
		OFFSET 0.000000 0.000000 0.000000
		CHANNELS 3 Zrotation Yrotation Xrotation
		JOINT RightUpLeg
		{
			OFFSET -1.305520 -1.794630 0.839290
			CHANNELS 3 Zrotation Yrotation Xrotation
			JOINT RightLeg
			{
				OFFSET -2.542530 -6.985550 0.000000
				CHANNELS 3 Zrotation Yrotation Xrotation
				JOINT RightFoot
				{
					OFFSET -2.568260 -7.056230 0.000000
					CHANNELS 3 Zrotation Yrotation Xrotation
					JOINT RightToeBase
					{
						OFFSET -0.164730 -0.452590 2.363150
						CHANNELS 3 Zrotation Yrotation Xrotation
						End Site
						{
							OFFSET 0.000000 0.000000 0.000000
						}
					}
				}
			}
		}
	}
}
MOTION
Frames: 25
Frame Time: 0.008333
1.024491 16.617036 -0.615084 20.791228 78.207210 26.665905 -12.446504 5.891708 -0.256366 -1.423973 16.439239 -2.681084 -0.329208 2.724262 41.769654 0.977885 -6.168260 23.219779 -3.495800 -0.000000 -84.471799 7.736157 -0.508111 2.195763 17.772743 -0.820280 -34.610612 1.759967 -0.675819 26.570620 -4.260517 -15.410708 -14.885356 -179.104600 -0.000000 -6.814400
1.187205 16.560150 -0.568844 17.382969 78.048072 23.150975 -12.555430 5.839311 -0.356019 -0.329987 16.892384 -3.956953 -0.202570 2.891317 44.894404 1.111605 -5.456666 23.733114 -3.283400 -0.000000 -80.077200 7.711631 -0.543064 1.965519 18.728298 -1.186630 -35.139081 1.769617 -0.958573 29.477818 -4.158526 -14.701368 -16.130812 -178.693900 -0.000000 -8.386700
1.343301 16.499885 -0.521798 14.078809 77.866812 19.717183 -12.611129 5.749015 -0.487316 0.681673 17.242360 -5.233464 -0.064902 3.078643 48.089918 1.247870 -4.091214 23.796942 -2.707400 0.000001 -75.324200 7.722219 -0.566654 1.730220 19.631247 -1.542502 -35.513275 1.766699 -1.214281 32.173501 -4.084948 -14.115421 -17.434356 -178.288800 -0.000001 -9.710800
1.492959 16.437120 -0.473441 10.990968 77.670957 16.479526 -12.626028 5.620216 -0.645259 1.594629 17.478215 -6.512236 0.090680 3.282606 51.325736 1.390598 -2.108305 23.372757 -1.802500 0.000000 -70.378400 7.757296 -0.584694 1.493843 20.466121 -1.875533 -35.724818 1.757010 -1.442127 34.630560 -4.045294 -13.669276 -18.798294 -177.881700 -0.000001 -10.814700
1.636725 16.373007 -0.423354 8.193998 77.462492 13.519668 -12.614953 5.455863 -0.822266 2.396463 17.592646 -7.800602 0.266461 3.498697 54.564299 1.544951 0.389070 22.448712 -0.661600 0.000000 -65.364300 7.805352 -0.601233 1.260582 21.224921 -2.170018 -35.777214 1.745160 -1.642692 36.837678 -4.041310 -13.365726 -20.217812 -177.465700 -0.000000 -11.739700
1.775246 16.308767 -0.371317 5.713758 77.239204 10.874214 -12.590995 5.261689 -1.009322 3.081612 17.582143 -9.108989 0.460525 3.722368 57.762270 1.714978 3.244997 21.042323 0.581300 0.000000 -60.378100 7.856707 -0.618118 1.035128 21.908624 -2.406915 -35.683052 1.734251 -1.817320 38.794395 -4.071622 -13.197007 -21.678981 -177.036200 0.000000 -12.535900
1.909313 16.245826 -0.317072 3.571312 76.996722 8.576575 -12.564046 5.045651 -1.195953 3.643206 17.443345 -10.448893 0.668292 3.948972 60.874457 1.901053 6.271713 19.194498 1.776600 -0.000001 -55.391200 7.904913 -0.635415 0.822088 22.518224 -2.571778 -35.464130 1.725710 -1.968056 40.511686 -4.131295 -13.142594 -23.160301 -176.593000 -0.000000 -13.255100
2.039834 16.185518 -0.260801 1.715844 76.728739 6.591300 -12.539703 4.815043 -1.371866 4.090398 17.177640 -11.832109 0.883649 4.173462 63.854536 2.099734 9.274269 16.984414 2.787400 -0.000000 -50.510699 7.945414 -0.653298 0.627637 23.069197 -2.643809 -35.143045 1.720525 -2.097025 41.999617 -4.214974 -13.182550 -24.631417 -176.140000 0.000000 -13.942700
2.167681 16.129161 -0.202682 0.105247 76.428899 4.891064 -12.520742 4.576532 -1.526863 4.431646 16.786448 -13.268965 1.100114 4.390317 66.660591 2.302326 12.072972 14.506613 3.512400 -0.000000 -45.759199 7.975567 -0.671982 0.457364 23.575384 -2.609691 -34.746922 1.718995 -2.206779 43.273520 -4.315408 -13.290292 -26.058504 -175.685700 -0.000000 -14.632200
2.293621 16.078038 -0.142947 -1.276648 76.091272 3.472348 -12.508197 4.336170 -1.651194 4.671053 16.271539 -14.766963 1.310966 4.593627 69.255140 2.496313 14.522188 11.863640 3.900100 -0.000000 -41.164800 7.994010 -0.691349 0.316035 24.044399 -2.465014 -34.305175 1.720756 -2.299552 44.351284 -4.424322 -13.435622 -27.407721 -175.243100 0.000000 -15.341500
2.418417 16.033144 -0.082053 -2.487806 75.709148 2.289135 -12.501051 4.096983 -1.737729 4.826170 15.639670 -16.329364 1.509656 4.777807 71.606858 2.667353 16.513795 9.162567 3.950499 0.000000 -36.851700 7.999266 -0.712623 0.207958 24.492962 -2.204642 -33.839682 1.726130 -2.377353 45.244729 -4.534646 -13.593685 -28.646273 -174.826200 0.000000 -16.068100
2.542705 15.995367 -0.020348 -3.543436 75.276865 1.333134 -12.497943 3.861680 -1.780785 4.906756 14.897914 -17.953557 1.689650 4.937953 73.689557 2.801400 17.983098 6.492302 3.706400 0.000000 -32.841900 7.990789 -0.736312 0.135113 24.926473 -1.836279 -33.369617 1.735103 -2.441466 45.966267 -4.639310 -13.738842 -29.748751 -174.450200 0.000000 -16.798200
2.666961 15.965364 0.041849 -4.454875 74.790195 0.596130 -12.496955 3.631666 -1.777008 4.924505 14.055266 -19.630760 1.844728 5.070199 75.481006 2.887346 18.905484 3.928724 3.241500 0.000000 -29.233500 7.968420 -0.762893 0.097547 25.347648 -1.372983 -32.906041 1.748084 -2.492492 46.523631 -4.732408 -13.849014 -30.697634 -174.128200 0.000000 -17.504500
2.791642 15.943557 0.104396 -5.232721 74.246335 0.067723 -12.495909 3.407136 -1.725020 4.893559 13.122126 -21.348301 1.969418 5.171910 76.962899 2.918734 19.293719 1.531473 2.643899 0.000000 -26.102200 7.932162 -0.792882 0.093570 25.757494 -0.831914 -32.451597 1.765924 -2.530290 46.918135 -4.809994 -13.908900 -31.483970 -173.869800 0.000000 -18.153600
2.916824 15.930173 0.167407 -5.851506 73.645657 -0.236038 -12.492605 3.189174 -1.625940 4.818430 12.108271 -23.083827 2.058978 5.241929 78.120619 2.894505 19.195020 -0.672052 1.995601 0.000000 -23.370600 7.883981 -0.825494 0.117415 26.143636 -0.242905 -32.000814 1.789465 -2.554178 47.151654 -4.868402 -13.902582 -32.111905 -173.680800 -0.000000 -18.721900
3.042631 15.925251 0.231155 -6.308118 72.990704 -0.321042 -12.484436 2.977185 -1.482270 4.709289 11.024052 -24.814806 2.110403 5.279847 78.943127 2.820331 18.689749 -2.655768 1.369300 0.000000 -21.074600 7.825638 -0.860459 0.162833 26.497899 0.367749 -31.540148 1.820123 -2.563012 47.218227 -4.906496 -13.823320 -32.592198 -173.561600 -0.000001 -19.184700
3.169295 15.928789 0.295965 -6.623263 72.287775 -0.214540 -12.468725 2.769076 -1.295800 4.580658 9.879853 -26.525797 2.123020 5.285568 79.425269 2.707897 17.885175 -4.401499 0.817200 -0.000001 -19.265000 7.757785 -0.898432 0.226287 26.818460 0.982366 -31.054621 1.859690 -2.555083 47.103144 -4.925902 -13.674784 -32.938052 -173.507500 -0.000000 -19.516301
3.296575 15.940612 0.362584 -6.766480 71.545271 0.095934 -12.442401 2.564359 -1.072340 4.429598 8.685434 -28.188841 2.097131 5.259872 79.564349 2.573307 16.909210 -5.920448 0.362100 0.000000 -17.834200 7.684488 -0.937809 0.298162 27.084889 1.568430 -30.522886 1.909370 -2.528746 46.799121 -4.926599 -13.453215 -33.173743 -173.512400 0.000000 -19.717300
3.424529 15.960565 0.431718 -6.747529 70.773371 0.589920 -12.402332 2.360804 -0.816132 4.260902 7.451780 -29.787801 2.035340 5.203214 79.363590 2.435303 15.896283 -7.226336 0.007200 0.000000 -16.729100 7.607754 -0.978673 0.374371 27.289143 2.110285 -29.926200 1.970635 -2.481979 46.289667 -4.910846 -13.164604 -33.317940 -173.567900 0.000000 -19.788300
3.553086 15.988533 0.504141 -6.566104 69.983676 1.254972 -12.345302 2.156702 -0.532251 4.072930 6.189719 -31.305397 1.941322 5.115863 78.828165 2.312594 14.975204 -8.344537 -0.261200 0.000000 -15.861700 7.530302 -1.020890 0.451268 27.419671 2.594184 -29.246633 2.044473 -2.412780 45.559466 -4.880377 -12.813945 -33.387933 -173.666301 -0.000000 -19.740899
3.682365 16.024344 0.580612 -6.227607 69.187105 2.078262 -12.267882 1.950027 -0.226904 3.861948 4.911027 -32.729908 1.819527 4.998164 77.964699 2.221477 14.254435 -9.305694 -0.465901 -0.000000 -15.138600 7.454897 -1.063847 0.526617 27.466108 3.014482 -28.471834 2.131377 -2.319203 44.593637 -4.836496 -12.406496 -33.394754 -173.801600 0.000000 -19.593500
3.812289 16.067898 0.661842 -5.734433 68.394522 3.044802 -12.167231 1.740183 0.094813 3.621721 3.627816 -34.045358 1.674883 4.849552 76.778112 2.174228 13.812216 -10.137669 -0.631000 0.000000 -14.477500 7.384644 -1.108038 0.601158 27.417941 3.369359 -27.588581 2.231049 -2.199462 43.377835 -4.779367 -11.947120 -33.340657 -173.970400 -0.000000 -19.367500
3.943023 16.118978 0.748363 -5.095096 67.613812 4.141850 -12.040351 1.526385 0.425972 3.345700 2.354558 -35.241971 1.512376 4.669864 75.271316 2.178252 13.689256 -10.862379 -0.777200 0.000000 -13.811699 7.323065 -1.152753 0.676389 27.266977 3.665637 -26.591315 2.342233 -2.051967 41.900862 -4.708333 -11.441188 -33.219037 -174.171100 -0.000001 -19.083800
4.074561 16.177293 0.840507 -4.319074 66.850462 5.351405 -11.885183 1.309468 0.760603 3.025947 1.107894 -36.306681 1.337205 4.458413 73.444724 2.235721 13.887098 -11.489514 -0.917700 0.000000 -13.096300 7.274357 -1.198090 0.756573 27.006703 3.913720 -25.475194 2.462342 -1.875666 40.156347 -4.621796 -10.895887 -33.014405 -174.403700 -0.000000 -18.759700
4.206977 16.242354 0.938432 -3.423211 66.106624 6.652666 -11.700067 1.090826 1.091079 2.655634 -0.091279 -37.229327 1.154475 4.215214 71.297034 2.343431 14.369179 -12.016346 -1.056300 -0.000000 -12.311300 7.243438 -1.243243 0.846363 26.634282 4.129879 -24.239342 2.587409 -1.669959 38.142674 -4.517900 -10.321887 -32.704312 -174.668400 -0.000000 -18.405200
